<svg width="125" height="40" viewBox="0 0 125 40" fill="none" xmlns="http://www.w3.org/2000/svg">
<path d="M65.8561 10.4552C65.8561 11.8405 64.7082 12.974 63.3051 12.974C61.902 12.974 60.7541 11.8405 60.7541 10.4552C60.7541 9.06985 61.8383 7.93639 63.3051 7.93639C64.7719 7.96788 65.8561 9.10134 65.8561 10.4552ZM55.3969 15.4928C55.3969 15.7132 55.3969 16.1225 55.3969 16.1225C55.3969 16.1225 54.1852 14.5797 51.6023 14.5797C47.3612 14.5797 44.013 17.7912 44.013 22.1991C44.013 26.607 47.2974 29.8184 51.6023 29.8184C54.2171 29.8184 55.3969 28.2442 55.3969 28.2442V28.9054C55.3969 29.2202 55.6202 29.4406 55.939 29.4406H59.0959V14.9575C59.0959 14.9575 56.1941 14.9575 55.939 14.9575C55.6202 14.9575 55.3969 15.2409 55.3969 15.4928ZM55.3969 24.7808C54.823 25.6309 53.6431 26.3551 52.24 26.3551C49.7528 26.3551 47.8395 24.8123 47.8395 22.1991C47.8395 19.5858 49.7528 18.0431 52.24 18.0431C53.6112 18.0431 54.8548 18.7987 55.3969 19.6173V24.7808ZM61.4556 14.9575H65.2184V29.4406H61.4556V14.9575ZM117.419 14.5797C114.836 14.5797 113.624 16.1225 113.624 16.1225V7.99937H109.861V29.4721C109.861 29.4721 112.763 29.4721 113.018 29.4721C113.337 29.4721 113.56 29.1887 113.56 28.9368V28.2757C113.56 28.2757 114.772 29.8499 117.355 29.8499C121.596 29.8499 124.944 26.607 124.944 22.2306C124.976 17.8227 121.628 14.5797 117.419 14.5797ZM116.813 26.3236C115.378 26.3236 114.23 25.5994 113.656 24.7493V19.5858C114.23 18.8302 115.505 18.0116 116.813 18.0116C119.3 18.0116 121.213 19.5543 121.213 22.1676C121.213 24.7808 119.3 26.3236 116.813 26.3236ZM107.948 20.8452V29.4721H104.185V21.286C104.185 18.8932 103.42 17.9171 101.283 17.9171C100.135 17.9171 98.9875 18.4838 98.2541 19.3339V29.4406H94.4913V14.9575H97.4569C97.7758 14.9575 97.999 15.2409 97.999 15.4928V16.1225C99.0832 14.989 100.55 14.5797 101.985 14.5797C103.611 14.5797 104.982 15.052 106.098 15.9651C107.438 17.0355 107.948 18.4209 107.948 20.8452ZM85.4033 14.5797C82.8204 14.5797 81.6087 16.1225 81.6087 16.1225V7.99937H77.8459V29.4721C77.8459 29.4721 80.7477 29.4721 81.0028 29.4721C81.3217 29.4721 81.5449 29.1887 81.5449 28.9368V28.2757C81.5449 28.2757 82.7566 29.8499 85.3395 29.8499C89.5806 29.8499 92.9288 26.607 92.9288 22.2306C92.9926 17.8227 89.6763 14.5797 85.4033 14.5797ZM84.7974 26.3236C83.3625 26.3236 82.2145 25.5994 81.6406 24.7493V19.5858C82.2145 18.8302 83.4901 18.0116 84.7974 18.0116C87.2847 18.0116 89.198 19.5543 89.198 22.1676C89.198 24.7808 87.2847 26.3236 84.7974 26.3236ZM74.6253 14.5797C75.7732 14.5797 76.3472 14.7686 76.3472 14.7686V18.2005C76.3472 18.2005 73.2222 17.1615 71.277 19.3654V29.5036H67.5143V14.9575C67.5143 14.9575 70.4161 14.9575 70.6712 14.9575C70.9901 14.9575 71.2133 15.2409 71.2133 15.4928V16.1225C71.9467 15.3039 73.4773 14.5797 74.6253 14.5797ZM35.7222 28.1497C35.5309 27.6774 35.3395 27.1737 35.1482 26.7644C34.8293 26.0717 34.5105 25.4105 34.2554 24.8123L34.2235 24.7808C31.5449 18.9876 28.6431 13.1314 25.5819 7.36967L25.4543 7.14927C25.1355 6.58254 24.8166 5.95285 24.5296 5.32315C24.1469 4.63048 23.7643 3.90632 23.1265 3.21365C21.8829 1.67089 20.0972 0.820801 18.1839 0.820801C16.2388 0.820801 14.4849 1.67089 13.1775 3.1192C12.6036 3.81187 12.1571 4.53602 11.7745 5.22869C11.4556 5.85839 11.1367 6.4566 10.8497 7.05482L10.7222 7.27521C7.72474 13.0684 4.79107 18.9246 2.08061 24.6864L2.04872 24.7493C1.76173 25.379 1.47474 26.0087 1.15586 26.7014C0.964538 27.1107 0.773212 27.583 0.581885 28.0868C0.0716813 29.5036 -0.0877575 30.8574 0.103569 32.2428C0.51811 35.1394 2.49515 37.5637 5.17372 38.6342C6.19413 39.0435 7.24643 39.2639 8.33061 39.2639C8.64949 39.2639 9.03214 39.2324 9.35102 39.2009C10.6265 39.0435 11.9658 38.6342 13.2413 37.8786C14.8357 36.997 16.3663 35.7061 18.0883 33.88C19.8102 35.7376 21.3727 36.997 22.9352 37.8786C24.2107 38.6027 25.55 39.0435 26.8255 39.2009C27.1444 39.2324 27.527 39.2639 27.8459 39.2639C28.9301 39.2639 30.0462 39.075 31.0028 38.6342C33.7452 37.5637 35.6584 35.0764 36.073 32.2428C36.3918 30.9204 36.2324 29.5665 35.7222 28.1497ZM18.1202 30.1333C16.0156 27.52 14.6444 25.0327 14.1661 22.9547C13.9747 22.0731 13.9429 21.286 14.0385 20.5933C14.1023 19.9636 14.3574 19.4284 14.6763 18.9876C15.4097 17.9486 16.6533 17.2874 18.1202 17.2874C19.587 17.2874 20.8625 17.9171 21.564 18.9876C21.8829 19.4599 22.1061 19.9951 22.2018 20.5933C22.3293 21.286 22.2656 22.1046 22.0742 22.9547C21.5959 25.0327 20.2247 27.4885 18.1202 30.1333ZM33.6814 31.9594C33.3944 33.9744 32.0551 35.7061 30.1418 36.4617C29.2171 36.8396 28.1967 36.9655 27.1763 36.8396C26.1878 36.7136 25.2311 36.4303 24.2107 35.832C22.8076 35.0764 21.4046 33.88 19.7464 32.0853C22.3293 28.9683 23.8918 26.1032 24.4658 23.5529C24.7528 22.3565 24.7847 21.286 24.6571 20.2785C24.4977 19.3025 24.1469 18.4209 23.6048 17.6652C22.3931 15.9336 20.3523 14.9261 18.0883 14.9261C15.8242 14.9261 13.7834 15.9651 12.5717 17.6652C12.0296 18.4209 11.6788 19.3339 11.5194 20.2785C11.3599 21.286 11.3918 22.388 11.7107 23.5529C12.2847 26.1032 13.911 28.9998 16.4301 32.1168C14.8357 33.88 13.4008 35.0764 11.9658 35.8635C10.9454 36.4303 9.98877 36.7451 9.00025 36.871C7.94796 36.997 6.92755 36.8396 6.03469 36.4932C4.12143 35.7376 2.75025 33.9744 2.49515 31.9909C2.3676 31.0149 2.46326 30.0703 2.84592 28.9998C2.97347 28.622 3.16479 28.2442 3.35612 27.7719C3.64311 27.1422 3.9301 26.5125 4.24898 25.8513L4.28086 25.7884C6.95944 20.0581 9.86122 14.1704 12.8587 8.47164L12.9862 8.25124C13.3051 7.68452 13.624 7.05482 13.911 6.48809C14.2298 5.85839 14.5806 5.29166 14.9952 4.7879C15.8242 3.87484 16.9084 3.37108 18.1202 3.37108C19.3319 3.37108 20.4161 3.87484 21.2451 4.7879C21.6597 5.29166 22.0105 5.85839 22.3293 6.48809C22.6482 7.05482 22.9671 7.68452 23.2541 8.25124L23.3816 8.47164C26.3472 14.2019 29.249 20.0896 31.9275 25.8198V25.8513C32.2464 26.481 32.5015 27.1737 32.8204 27.7719C33.0117 28.2442 33.2031 28.622 33.3306 28.9998C33.7133 29.9758 33.8408 30.9519 33.6814 31.9594Z" fill="#244D4D"/>
</svg>
