<svg width="25" height="19" viewBox="0 0 25 19" fill="none" xmlns="http://www.w3.org/2000/svg">
<path d="M20.0871 7.3104C20.368 7.3104 20.5957 7.08271 20.5957 6.80181V5.17036C20.5957 4.88946 20.368 4.66177 20.0871 4.66177L19.3632 4.66618L16.988 7.3104H20.0871Z" fill="#666666"/>
<path d="M4.84229 7.31022H7.96581L5.54936 4.66168H4.84229C4.5614 4.66168 4.33371 4.88937 4.33371 5.17027V6.80159C4.33371 7.08254 4.5614 7.31022 4.84229 7.31022Z" fill="#666666"/>
<path d="M12.7565 9.93298L17.4697 4.66177H7.46007L12.2507 9.935C12.3865 10.0845 12.6218 10.0836 12.7565 9.93298Z" fill="#666666"/>
<path d="M14.0833 17.351H13.2077V11.4323C12.9977 11.5536 12.7577 11.6198 12.5101 11.6208C12.5083 11.6208 12.5064 11.6208 12.5046 11.6208C12.2552 11.6208 12.0131 11.5545 11.8014 11.4323V17.351H10.8461C10.4578 17.351 10.143 17.6658 10.143 18.0541C10.143 18.4425 10.4578 18.7573 10.8461 18.7573H14.0834C14.4717 18.7573 14.7865 18.4425 14.7865 18.0541C14.7865 17.6658 14.4717 17.351 14.0833 17.351Z" fill="#666666"/>
<path d="M6.39553 9.26667H1.87219V0.931508C1.87219 0.543168 1.55735 0.228333 1.16901 0.228333C0.780671 0.228333 0.465836 0.543168 0.465836 0.931508V18.1104C0.465836 18.4988 0.780671 18.8136 1.16901 18.8136C1.55735 18.8136 1.87219 18.4988 1.87219 18.1104V12.8581H6.98488V18.1104C6.98488 18.4988 7.29972 18.8136 7.68806 18.8136C8.0764 18.8136 8.39124 18.4988 8.39124 18.1104V11.2624C8.39124 10.1619 7.49595 9.26667 6.39553 9.26667Z" fill="#666666"/>
<path d="M23.7624 0.228333C23.3741 0.228333 23.0593 0.543168 23.0593 0.931508V9.26667H18.6407C17.5402 9.26667 16.645 10.162 16.645 11.2624V18.1104C16.645 18.4988 16.9598 18.8136 17.3482 18.8136C17.7365 18.8136 18.0514 18.4988 18.0514 18.1104V12.8569H23.0593V18.1104C23.0593 18.4988 23.3741 18.8136 23.7625 18.8136C24.1508 18.8136 24.4656 18.4988 24.4656 18.1104V0.931508C24.4656 0.543168 24.1508 0.228333 23.7624 0.228333Z" fill="#666666"/>
</svg>
