<svg width="25" height="20" viewBox="0 0 25 20" fill="none" xmlns="http://www.w3.org/2000/svg">
<path d="M2.4575 11.5139H22.4741C23.2991 11.5139 23.9678 10.8451 23.9678 10.0201C23.9678 9.19513 23.2991 8.52637 22.4741 8.52637H2.4575C1.6325 8.52637 0.96373 9.19513 0.96373 10.0201C0.963683 10.8451 1.6325 11.5139 2.4575 11.5139Z" fill="#666666"/>
<path d="M13.9596 5.30438C13.5236 5.30438 13.1689 5.65904 13.1689 6.09502V7.12004H19.288V6.09502C19.288 5.65904 18.9333 5.30438 18.4973 5.30438H13.9596Z" fill="#666666"/>
<path d="M4.23695 6.09508C4.23695 4.88369 5.22245 3.89819 6.43384 3.89819H10.9716C11.548 3.89819 12.073 4.12169 12.4653 4.48619C12.8576 4.12169 13.3826 3.89819 13.9591 3.89819H18.4968C19.7082 3.89819 20.6937 4.88369 20.6937 6.09508V7.12009H22.976V2.27697C22.976 1.45197 22.3072 0.783203 21.4823 0.783203H3.44846C2.62346 0.783203 1.9547 1.45197 1.9547 2.27697V7.12009H4.23695V6.09508Z" fill="#666666"/>
<path d="M6.43438 5.30438C5.99839 5.30438 5.64374 5.65904 5.64374 6.09502V7.12004H11.7628V6.09502C11.7628 5.65904 11.4081 5.30438 10.9721 5.30438H6.43438Z" fill="#666666"/>
<path d="M0.46582 12.9201V19.3897H1.87207V16.8257H23.0596V19.3897H24.4658V12.9201H0.46582Z" fill="#666666"/>
</svg>
